<?xml version="1.0" standalone="no"?>
<!DOCTYPE svg PUBLIC "-//W3C//DTD SVG 20010904//EN"
 "http://www.w3.org/TR/2001/REC-SVG-20010904/DTD/svg10.dtd">
<svg version="1.0" xmlns="http://www.w3.org/2000/svg"
 width="400.000000pt" height="400.000000pt" viewBox="0 0 400.000000 400.000000"
 preserveAspectRatio="xMidYMid meet">
<metadata>
Created by potrace 1.11, written by Peter Selinger 2001-2013
</metadata>
<g transform="translate(0.000000,400.000000) scale(0.100000,-0.100000)"
fill="#000000" stroke="none">
<path d="M188 3863 c-9 -2 -28 -23 -44 -46 -22 -34 -27 -51 -25 -95 2 -40 -1
-52 -10 -46 -7 4 -9 3 -6 -3 3 -5 -4 -43 -17 -84 -31 -103 -29 -123 10 -127
27 -3 33 1 38 24 11 42 27 9 19 -38 -3 -24 -1 -44 7 -53 9 -11 9 -42 0 -142
-36 -379 70 -713 309 -971 17 -18 33 -43 36 -55 2 -12 27 -114 54 -227 45
-186 67 -278 162 -685 17 -71 53 -222 80 -335 28 -113 54 -224 60 -248 24
-106 49 -151 128 -230 112 -111 126 -121 232 -168 378 -168 973 -191 1379 -54
82 28 225 98 282 139 49 35 104 103 137 168 18 36 75 233 87 303 3 14 11 45
19 70 7 25 50 191 94 370 44 179 119 480 166 670 48 190 100 399 115 465 16
66 40 159 53 207 13 48 22 89 20 92 -3 2 0 13 6 23 8 17 18 19 70 15 56 -4 63
-2 101 28 23 18 44 30 47 27 8 -9 43 12 43 26 0 7 14 23 30 36 22 17 30 32 30
56 0 18 6 48 14 66 13 34 30 133 29 177 -1 53 -4 62 -22 72 -28 14 -50 3 -66
-36 -8 -19 -19 -34 -24 -34 -6 0 -11 -9 -11 -21 0 -15 -5 -19 -15 -15 -8 3
-15 0 -15 -7 -1 -7 -16 17 -35 53 -22 45 -57 88 -107 136 -74 70 -131 103
-273 160 -38 15 -74 31 -80 34 -24 17 -156 61 -222 75 -92 19 -418 71 -503 80
-36 4 -74 9 -85 11 -93 17 -311 24 -485 15 -322 -17 -354 -19 -374 -27 -10 -4
-21 -2 -25 5 -5 7 -28 10 -67 7 -32 -3 -97 -8 -144 -11 -189 -13 -588 -102
-778 -172 -37 -14 -53 -14 -111 -4 -37 7 -79 9 -93 6 -25 -6 -29 -1 -67 76
-23 46 -41 90 -40 99 10 77 -54 158 -113 143z m3592 -829 c0 -31 -2 -35 -15
-24 -18 15 -19 32 -3 48 17 17 18 16 18 -24z m-3530 -43 c0 -6 -4 -13 -10 -16
-5 -3 -10 1 -10 9 0 9 5 16 10 16 6 0 10 -4 10 -9z m61 -60 c27 -26 49 -57 49
-69 0 -11 18 -96 40 -188 22 -93 44 -187 50 -209 l9 -40 -25 30 c-56 69 -87
122 -78 136 4 7 3 9 -4 6 -30 -19 -137 344 -109 372 15 15 13 17 68 -38z"/>
</g>
</svg>
